<?xml version="1.0" encoding="UTF-8"?>
<svg version="1.1" xmlns="http://www.w3.org/2000/svg" width="48" height="48">
<path d="M0 0 C4.22374182 1.40791394 4.97620828 3.82957944 6.9765625 7.6484375 C8.301131 10.69191169 8.68314227 12.73609806 8 16 C6.125 18.375 6.125 18.375 4 20 C3.34 20 2.68 20 2 20 C2.33 23.63 2.66 27.26 3 31 C3.99 30.01 4.98 29.02 6 28 C5.979375 27.030625 5.95875 26.06125 5.9375 25.0625 C6 22 6 22 7.58203125 19.88671875 C10.64708777 17.49508337 12.91365024 17.21036197 16.75 16.75 C17.92046875 16.60046875 19.0909375 16.4509375 20.296875 16.296875 C21.18890625 16.19890625 22.0809375 16.1009375 23 16 C22.43168575 21.68314252 21.26358793 26.14388465 17.671875 30.67578125 C15.47805555 32.41340927 14.37002733 32.19513908 11.625 31.9375 C7.94258706 31.78732003 7.19128884 31.87507667 3.9375 34 C3.298125 34.66 2.65875 35.32 2 36 C-0.69295994 35.02754225 -2.73049579 34.24255379 -4.875 32.3125 C-7.08889743 30.61133572 -7.08889743 30.61133572 -10.4375 31.6875 C-11.613125 31.790625 -12.78875 31.89375 -14 32 C-17.90693393 28.44034909 -19.75829723 25.19257521 -21 20 C-21 18.68 -21 17.36 -21 16 C-18.91426154 16.22906954 -16.83136359 16.48409892 -14.75 16.75 C-13.58984375 16.88921875 -12.4296875 17.0284375 -11.234375 17.171875 C-7.60450109 18.101263 -6.20634379 19.00373065 -4 22 C-3.95977609 24.3329866 -3.95679753 26.66706666 -4 29 C-3.01 29.66 -2.02 30.32 -1 31 C-0.67 27.37 -0.34 23.74 0 20 C-1.32 19.34 -2.64 18.68 -4 18 C-6 16 -6 16 -6.5 13.5 C-5.74815071 8.237055 -2.90495621 4.37472573 0 0 Z " fill="#1B1C1B" transform="translate(23,12)"/>
<path d="M0 0 C3.0493807 0.60450278 5.11483636 1.55043172 7.625 3.375 C8.21539062 3.79523437 8.80578125 4.21546875 9.4140625 4.6484375 C11.99211073 6.84549338 12.95728457 8.50877254 13.25 11.875 C12.99903773 15.01202842 12.2380249 17.13706741 11 20 C11 20.99 11 21.98 11 23 C10.34 23 9.68 23 9 23 C8.67 21.68 8.34 20.36 8 19 C6.88625 18.896875 5.7725 18.79375 4.625 18.6875 C2.830625 18.3471875 2.830625 18.3471875 1 18 C-2.22395275 13.16407087 -1.28671404 8.04283751 -0.5 2.4375 C-0.335 1.633125 -0.17 0.82875 0 0 Z " fill="#C2EFC3" transform="translate(4,1)"/>
<path d="M0 0 C2.58363505 12.59522085 2.58363505 12.59522085 -0.6875 17.5625 C-3.37484955 19.23301458 -4.89156165 19.34538204 -8 19 C-8.33 20.32 -8.66 21.64 -9 23 C-9.66 23 -10.32 23 -11 23 C-10.95875 22.236875 -10.9175 21.47375 -10.875 20.6875 C-10.77919176 17.77281584 -10.77919176 17.77281584 -13 15 C-13.4375 12.125 -13.4375 12.125 -13 9 C-10.8125 6.375 -10.8125 6.375 -8 4 C-7.13375 3.236875 -6.2675 2.47375 -5.375 1.6875 C-3 0 -3 0 0 0 Z " fill="#C2EFC3" transform="translate(44,1)"/>
<path d="M0 0 C-0.4727223 4.9635841 -1.67944151 8.23071739 -5 12 C-8.125 12.5 -8.125 12.5 -11 12 C-13 10 -13 10 -13.375 7.0625 C-13 4 -13 4 -11.1875 2.1875 C-7.32898921 0.09287986 -4.32441707 -0.09609816 0 0 Z " fill="#C0ECC1" transform="translate(44,30)"/>
<path d="M0 0 C3 1 3 1 4.6875 3.125 C6.29811491 6.65301361 6.36215469 9.16116023 6 13 C4 15 4 15 1 15.25 C-2 15 -2 15 -4 13 C-4.65664119 7.30910967 -3.49195273 4.47406443 0 0 Z " fill="#C0EEC1" transform="translate(23,15)"/>
<path d="M0 0 C9.47195358 0.80270793 9.47195358 0.80270793 13 4 C13.4375 7.0625 13.4375 7.0625 13 10 C11 12 11 12 8.125 12.5 C5 12 5 12 2.6875 9.375 C1.05878542 6.11757085 0.34307853 3.60232452 0 0 Z " fill="#C3F1C4" transform="translate(4,30)"/>
<path d="M0 0 C3.0493807 0.60450278 5.11483636 1.55043172 7.625 3.375 C8.21539062 3.79523437 8.80578125 4.21546875 9.4140625 4.6484375 C11.99211073 6.84549338 12.95728457 8.50877254 13.25 11.875 C12.99903773 15.01202842 12.2380249 17.13706741 11 20 C11 20.99 11 21.98 11 23 C10.34 23 9.68 23 9 23 C8.67 21.68 8.34 20.36 8 19 C6.88625 18.896875 5.7725 18.79375 4.625 18.6875 C2.830625 18.3471875 2.830625 18.3471875 1 18 C-2.22395275 13.16407087 -1.28671404 8.04283751 -0.5 2.4375 C-0.335 1.633125 -0.17 0.82875 0 0 Z M1 2 C0.94613371 4.12472576 0.90726929 6.24983652 0.875 8.375 C0.85179687 9.55835938 0.82859375 10.74171875 0.8046875 11.9609375 C0.67133771 15.11153817 0.67133771 15.11153817 3 17 C6 17.33333333 6 17.33333333 9 17 C11.21839742 15.13397489 11.21839742 15.13397489 11.625 12.3125 C10.76548617 7.75707668 8.42383226 6.20037725 4.9453125 3.3203125 C3.11603584 1.81280577 3.11603584 1.81280577 1 2 Z " fill="#242A24" transform="translate(4,1)"/>
<path d="M0 0 C2.58363505 12.59522085 2.58363505 12.59522085 -0.6875 17.5625 C-3.37484955 19.23301458 -4.89156165 19.34538204 -8 19 C-8.33 20.32 -8.66 21.64 -9 23 C-9.66 23 -10.32 23 -11 23 C-10.95875 22.236875 -10.9175 21.47375 -10.875 20.6875 C-10.77919176 17.77281584 -10.77919176 17.77281584 -13 15 C-13.4375 12.125 -13.4375 12.125 -13 9 C-10.8125 6.375 -10.8125 6.375 -8 4 C-7.13375 3.236875 -6.2675 2.47375 -5.375 1.6875 C-3 0 -3 0 0 0 Z M-9.28125 7.05078125 C-11.29127043 8.99578341 -11.29127043 8.99578341 -11.625 12.3125 C-11.21839742 15.13397489 -11.21839742 15.13397489 -9 17 C-6 17.33333333 -6 17.33333333 -3 17 C-0.67133771 15.11153817 -0.67133771 15.11153817 -0.8046875 11.9609375 C-0.82789063 10.77757812 -0.85109375 9.59421875 -0.875 8.375 C-0.89304687 7.18648437 -0.91109375 5.99796875 -0.9296875 4.7734375 C-0.95289063 3.85820313 -0.97609375 2.94296875 -1 2 C-4.5371516 2 -6.74457935 4.78524026 -9.28125 7.05078125 Z " fill="#242A24" transform="translate(44,1)"/>
<path d="M0 0 C2.08614437 0.20198219 4.16904068 0.43769321 6.25 0.6875 C7.41015625 0.81511719 8.5703125 0.94273438 9.765625 1.07421875 C13.66903668 2.19149963 14.8182312 3.65714138 17 7 C16.01 8.485 16.01 8.485 15 10 C14.78601562 9.21238281 14.57203125 8.42476562 14.3515625 7.61328125 C13.23122363 4.7767034 13.23122363 4.7767034 10.3984375 3.85546875 C9.40070312 3.63503906 8.40296875 3.41460938 7.375 3.1875 C5.87066406 2.83751953 5.87066406 2.83751953 4.3359375 2.48046875 C3.56507812 2.32191406 2.79421875 2.16335937 2 2 C2.64268437 3.64706553 3.28923802 5.29262175 3.9375 6.9375 C4.29714844 7.85402344 4.65679688 8.77054688 5.02734375 9.71484375 C5.7996218 11.92418533 5.7996218 11.92418533 7 13 C9.33297433 13.04092937 11.66705225 13.04241723 14 13 C14 13.66 14 14.32 14 15 C10.8125 15.875 10.8125 15.875 7 16 C3.09306607 12.44034909 1.24170277 9.19257521 0 4 C0 2.68 0 1.36 0 0 Z " fill="#272E27" transform="translate(2,28)"/>
<path d="M0 0 C3.77141154 1.25713718 4.05175299 2.34682217 5.8125 5.8125 C6.50279297 7.12154297 6.50279297 7.12154297 7.20703125 8.45703125 C8 11 8 11 7.13671875 13.32421875 C6.76160156 13.87722656 6.38648438 14.43023437 6 15 C5.54427083 13.01432292 5.08854167 11.02864583 4.6328125 9.04296875 C4.01992277 6.72257026 4.01992277 6.72257026 2 4 C1.34 4 0.68 4 0 4 C-3.12940055 7.97193147 -3.29162929 11.04230204 -3 16 C-1.02 16.66 0.96 17.32 3 18 C2.01 18.66 1.02 19.32 0 20 C-2.46800047 18.84826645 -4.04783565 17.95216435 -6 16 C-7.2685598 9.65720102 -3.34986557 5.04473803 0 0 Z " fill="#283228" transform="translate(23,12)"/>
<path d="M0 0 C-0.58548068 5.85480683 -1.96462028 10.13196494 -5.375 14.9375 C-7 16 -7 16 -9.6875 15.6875 C-10.450625 15.460625 -11.21375 15.23375 -12 15 C-12 14.67 -12 14.34 -12 14 C-11.0925 13.87625 -10.185 13.7525 -9.25 13.625 C-4.78118837 11.39059419 -4.25506777 8.68324327 -2.6640625 4.1171875 C-2.44492187 3.41851563 -2.22578125 2.71984375 -2 2 C-3.4391134 2.28359887 -4.87625518 2.57721399 -6.3125 2.875 C-7.11300781 3.03742187 -7.91351563 3.19984375 -8.73828125 3.3671875 C-11.25301118 3.94478999 -11.25301118 3.94478999 -14 6 C-14.72965366 8.56282742 -14.72965366 8.56282742 -15 11 C-15.66 11 -16.32 11 -17 11 C-16.9375 7.6875 -16.9375 7.6875 -16 4 C-11.03363589 1.02018153 -5.81788465 0 0 0 Z " fill="#252E26" transform="translate(46,28)"/>
<path d="M0 0 C3.3 0 6.6 0 10 0 C9.625 2.4375 9.625 2.4375 9 5 C8.01 5.495 8.01 5.495 7 6 C6.34786708 8.02463255 6.34786708 8.02463255 6 10 C5.34 10 4.68 10 4 10 C3.896875 9.401875 3.79375 8.80375 3.6875 8.1875 C3.15981013 5.91889034 3.15981013 5.91889034 1.4375 4.4375 C0.963125 3.963125 0.48875 3.48875 0 3 C0 2.01 0 1.02 0 0 Z " fill="#3A633C" transform="translate(19,0)"/>
<path d="M0 0 C0.99 0.99 1.98 1.98 3 3 C3.99 2.67 4.98 2.34 6 2 C6 2.66 6 3.32 6 4 C7.32 3.67 8.64 3.34 10 3 C9.125 6.875 9.125 6.875 8 8 C5.0625 8.1875 5.0625 8.1875 2 8 C0 6 0 6 -0.125 2.875 C-0.08375 1.92625 -0.0425 0.9775 0 0 Z " fill="#73D976" transform="translate(33,10)"/>
<path d="M0 0 C0.33 0 0.66 0 1 0 C1.125 2.875 1.125 2.875 1 6 C-1 8 -1 8 -4 8.25 C-7 8 -7 8 -9 6 C-8.67 5.01 -8.34 4.02 -8 3 C-7.01 3.33 -6.02 3.66 -5 4 C-5 3.34 -5 2.68 -5 2 C-3.68 2 -2.36 2 -1 2 C-0.67 1.34 -0.34 0.68 0 0 Z " fill="#73D976" transform="translate(14,10)"/>
<path d="M0 0 C0.45375 0.495 0.9075 0.99 1.375 1.5 C2.87635519 3.22609337 2.87635519 3.22609337 5 3 C5 3.66 5 4.32 5 5 C6.32 5.66 7.64 6.32 9 7 C7 9 7 9 4 9.25 C1 9 1 9 -1 7 C-1.1875 3.9375 -1.1875 3.9375 -1 1 C-0.67 0.67 -0.34 0.34 0 0 Z " fill="#72D774" transform="translate(32,33)"/>
<path d="M0 0 C0.66 0.33 1.32 0.66 2 1 C2.125 3.875 2.125 3.875 2 7 C0 9 0 9 -3 9.3125 C-3.99 9.209375 -4.98 9.10625 -6 9 C-6.66 8.01 -7.32 7.02 -8 6 C-6.68 5.67 -5.36 5.34 -4 5 C-4 4.34 -4 3.68 -4 3 C-3.01 3 -2.02 3 -1 3 C-0.67 2.01 -0.34 1.02 0 0 Z " fill="#71D573" transform="translate(15,33)"/>
<path d="M0 0 C1.98 0.99 1.98 0.99 4 2 C4 1.34 4 0.68 4 0 C4.66 0 5.32 0 6 0 C6 0.66 6 1.32 6 2 C7.32 1.34 8.64 0.68 10 0 C9.125 4.875 9.125 4.875 8 6 C5.0625 6.1875 5.0625 6.1875 2 6 C1.34 5.34 0.68 4.68 0 4 C0 2.68 0 1.36 0 0 Z " fill="#72D975" transform="translate(19,24)"/>
<path d="M0 0 C0.33 0 0.66 0 1 0 C2.45882353 7.29411765 2.45882353 7.29411765 0.375 10.5 C-2.35463289 12.22397867 -3.83157817 12.35204687 -7 12 C-7.33 13.32 -7.66 14.64 -8 16 C-8.66 16 -9.32 16 -10 16 C-10 14.02 -10 12.04 -10 10 C-7.94921875 9.77213542 -5.8984375 9.54427083 -3.84765625 9.31640625 C-1.98859771 9.18113386 -1.98859771 9.18113386 -1 8 C-0.76924918 6.65252916 -0.58846937 5.29622435 -0.4375 3.9375 C-0.293125 2.638125 -0.14875 1.33875 0 0 Z " fill="#2A352A" transform="translate(43,8)"/>
<path d="M0 0 C0.33 0 0.66 0 1 0 C1.22786458 2.05078125 1.45572917 4.1015625 1.68359375 6.15234375 C1.81886614 8.01140229 1.81886614 8.01140229 3 9 C4.34747084 9.23075082 5.70377565 9.41153063 7.0625 9.5625 C8.361875 9.706875 9.66125 9.85125 11 10 C11 11.98 11 13.96 11 16 C10.34 16 9.68 16 9 16 C8.67 14.68 8.34 13.36 8 12 C6.88625 11.9175 5.7725 11.835 4.625 11.75 C1 11 1 11 -0.5 9.375 C-1.1944514 6.07635587 -0.63124929 3.28249631 0 0 Z " fill="#222C23" transform="translate(4,8)"/>
<path d="M0 0 C0.33 0 0.66 0 1 0 C1.103125 1.2375 1.20625 2.475 1.3125 3.75 C1.73801682 7.2792866 2.48112592 9.37160966 5 12 C2.5625 11.1875 2.5625 11.1875 0 10 C-1.231394 6.30581799 -0.64432764 3.7943739 0 0 Z " fill="#334033" transform="translate(4,8)"/>
</svg>
